<?xml version="1.0" standalone="no"?>
<!DOCTYPE svg PUBLIC "-//W3C//DTD SVG 20010904//EN"
 "http://www.w3.org/TR/2001/REC-SVG-20010904/DTD/svg10.dtd">
<svg version="1.0" xmlns="http://www.w3.org/2000/svg"
 width="2191.000000pt" height="875.000000pt" viewBox="0 0 2191.000000 875.000000"
 preserveAspectRatio="xMidYMid meet">

<g transform="translate(0.000000,875.000000) scale(0.100000,-0.100000)"
fill="#000000" stroke="none">
<path d="M21105 8734 c-288 -47 -518 -252 -590 -529 -18 -70 -21 -238 -6 -307
106 -469 601 -700 1026 -480 101 53 227 181 283 288 61 119 86 232 79 364 -10
197 -64 317 -207 460 -103 103 -184 153 -305 185 -61 16 -225 27 -280 19z
m240 -109 c211 -54 378 -216 441 -430 27 -93 23 -239 -10 -341 -64 -198 -234
-356 -436 -405 -77 -19 -231 -16 -305 5 -202 59 -367 229 -420 433 -19 74 -19
222 0 298 52 207 217 378 420 436 77 22 230 24 310 4z"/>
<path d="M20920 8036 l0 -397 48 3 47 3 3 168 2 167 99 0 99 0 108 -170 107
-170 58 0 c33 0 59 2 59 5 0 3 -47 80 -105 170 -58 90 -105 166 -105 168 0 3
15 8 34 11 18 4 52 20 74 35 54 40 76 97 70 190 -5 88 -39 142 -113 180 -48
25 -57 26 -267 30 l-218 3 0 -396z m427 287 c24 -11 42 -30 54 -57 25 -55 24
-96 -4 -137 -34 -52 -94 -68 -249 -69 l-128 0 0 140 0 140 146 0 c116 0 153
-3 181 -17z"/>
<path d="M201 599 c-58 -11 -128 -53 -146 -89 -21 -41 -19 -109 5 -148 25 -41
61 -63 176 -107 50 -20 100 -43 112 -51 49 -34 11 -86 -64 -88 -38 -1 -50 4
-69 27 -23 26 -29 27 -110 27 -58 0 -85 -4 -85 -12 0 -6 11 -30 25 -54 19 -32
39 -50 82 -71 52 -25 68 -28 153 -27 77 0 105 5 148 23 68 30 109 77 117 135
15 94 -55 164 -212 212 -83 25 -123 50 -123 78 0 23 27 37 71 38 35 0 47 -5
64 -26 21 -27 23 -27 98 -20 85 8 89 13 54 65 -54 81 -165 114 -296 88z"/>
<path d="M3041 600 c-158 -33 -239 -146 -229 -319 10 -166 88 -251 253 -274
92 -13 197 4 279 47 l61 32 3 122 3 122 -136 0 -135 0 0 -55 0 -55 55 0 55 0
0 -44 0 -45 -54 -11 c-67 -14 -118 -5 -156 27 -37 31 -52 77 -52 163 0 114 55
183 145 183 40 0 62 -16 92 -67 9 -16 17 -17 93 -5 49 7 82 17 82 24 0 26 -83
105 -136 130 -61 29 -154 39 -223 25z"/>
<path d="M7131 595 c-139 -39 -201 -127 -201 -284 0 -211 104 -310 314 -299
126 7 209 60 252 164 8 20 14 37 12 39 -2 2 -42 6 -89 10 l-87 7 -7 -31 c-8
-39 -58 -81 -96 -81 -83 0 -124 62 -123 185 1 126 39 187 118 187 49 0 72 -16
92 -64 l17 -43 76 3 c42 2 80 8 85 12 14 14 -14 80 -53 123 -20 22 -54 48 -77
58 -58 26 -166 32 -233 14z"/>
<path d="M8624 600 c-102 -22 -169 -71 -205 -152 -19 -43 -23 -71 -23 -143 0
-102 21 -166 76 -222 68 -70 208 -100 327 -69 82 21 124 47 160 99 40 59 52
105 52 194 0 136 -43 213 -145 263 -68 33 -169 46 -242 30z m168 -149 c46 -51
59 -137 37 -227 -33 -129 -178 -150 -236 -34 -42 81 -25 233 30 279 46 38 126
29 169 -18z"/>
<path d="M12969 600 c-95 -17 -182 -86 -210 -166 -21 -58 -18 -208 4 -266 24
-62 99 -130 164 -149 76 -22 208 -17 268 10 111 49 159 133 159 276 0 142 -49
227 -155 274 -53 24 -163 34 -230 21z m168 -144 c48 -56 59 -191 21 -266 -42
-83 -134 -102 -196 -41 -67 67 -70 224 -6 301 46 54 137 57 181 6z"/>
<path d="M19873 600 c-138 -28 -223 -137 -223 -289 0 -138 55 -234 163 -282
75 -33 219 -33 294 0 106 47 163 144 163 276 0 122 -52 220 -140 265 -67 34
-172 46 -257 30z m169 -137 c33 -29 48 -77 48 -158 0 -123 -42 -187 -123 -189
-92 -2 -140 58 -141 179 0 113 32 175 100 194 37 10 89 -2 116 -26z"/>
<path d="M1455 587 c-3 -7 -4 -138 -3 -292 l3 -280 228 -3 227 -2 0 55 0 54
-137 3 -138 3 -3 62 -3 62 98 3 98 3 0 55 0 55 -97 3 -98 3 0 54 0 55 135 0
135 0 0 60 0 60 -220 0 c-169 0 -222 -3 -225 -13z"/>
<path d="M4505 588 c-2 -7 -47 -134 -100 -282 -52 -148 -95 -276 -95 -283 0
-11 19 -13 87 -11 l87 3 18 63 19 63 106 -3 106 -3 17 -60 17 -60 91 -3 c70
-2 92 0 91 10 0 7 -46 139 -103 293 l-102 280 -117 3 c-89 2 -118 -1 -122 -10z
m163 -213 c18 -61 32 -113 32 -118 0 -9 -140 -9 -140 1 -1 20 66 240 71 234 3
-4 20 -57 37 -117z"/>
<path d="M9920 305 l0 -296 83 3 82 3 3 98 c2 89 4 97 22 97 14 0 35 -27 77
-100 l58 -100 103 0 c56 0 102 2 102 5 0 3 -36 54 -80 112 l-80 107 42 21 c60
29 91 89 86 166 -9 133 -106 177 -390 179 l-108 0 0 -295z m298 159 c17 -12
22 -25 22 -58 0 -56 -20 -73 -93 -82 l-57 -7 0 82 0 81 53 0 c31 0 61 -6 75
-16z"/>
<path d="M11335 587 c-3 -7 -4 -138 -3 -292 l3 -280 88 -3 87 -3 0 94 0 94 94
5 c173 9 250 72 251 203 0 149 -91 194 -393 195 -90 0 -124 -3 -127 -13z m322
-129 c16 -15 23 -33 23 -59 0 -55 -34 -79 -111 -79 l-59 0 0 80 0 80 62 0 c50
0 66 -4 85 -22z"/>
<path d="M14265 587 c-3 -7 -4 -138 -3 -292 l3 -280 83 -3 82 -3 0 101 c0 99
1 101 22 98 16 -2 40 -31 83 -101 l60 -97 102 0 c57 0 103 2 103 5 0 3 -37 54
-82 112 -46 60 -77 108 -71 110 25 9 77 49 96 75 32 43 34 123 5 178 -44 82
-135 109 -371 110 -78 0 -109 -3 -112 -13z m305 -127 c13 -13 20 -33 20 -60 0
-50 -27 -70 -101 -73 l-54 -2 -3 78 -3 77 61 0 c47 0 64 -4 80 -20z"/>
<path d="M15855 588 c-3 -7 -50 -137 -105 -289 -55 -152 -100 -279 -100 -283
0 -4 41 -5 92 -4 l92 3 18 63 19 63 106 -3 106 -3 17 -60 17 -60 91 -3 c70 -2
92 0 91 10 0 7 -46 139 -103 293 l-102 280 -117 3 c-89 2 -119 -1 -122 -10z
m153 -178 c12 -41 24 -94 28 -117 l7 -43 -67 0 c-36 0 -66 3 -66 8 -1 23 65
241 70 235 4 -5 16 -42 28 -83z"/>
<path d="M17164 586 c-3 -7 -4 -33 -2 -57 l3 -44 88 -3 87 -3 0 -235 0 -235
83 3 82 3 3 232 2 232 83 3 82 3 0 55 0 55 -253 3 c-209 2 -253 0 -258 -12z"/>
<path d="M18577 593 c-4 -3 -7 -136 -7 -295 l0 -288 85 0 85 0 0 295 0 295
-78 0 c-43 0 -82 -3 -85 -7z"/>
<path d="M21185 587 c-3 -7 -4 -138 -3 -292 l3 -280 79 -3 79 -3 -5 206 c-3
113 -4 204 -3 203 1 -2 21 -46 43 -98 22 -52 63 -143 91 -202 l51 -108 120 0
120 0 0 295 0 296 -77 -3 -78 -3 0 -203 c0 -111 -1 -202 -1 -202 -1 0 -14 30
-28 66 -15 36 -56 128 -93 205 l-66 139 -114 0 c-82 0 -115 -3 -118 -13z"/>
</g>
</svg>
